:SAMPLES-PER-SECOND 30
:FULLY-SPECIFIED
:DEGREES
310
root  -4.74275 39.7856 -2.53661 131.246 -80.6104 -137.004
RightUpLeg  8.01479 -0.000991867 10.1645
RightLeg  8.03366 -22.502 -0.203058
RightFoot  -9.90996 -0.0504369 -1.33327
RightToes  -3.1126e-008 1.75238e-005 3.56266e-009
Spine  -19.4407 0.064906 -3.67471
Spine1  26.489 0.256134 4.1829
HEad  -0.759602 3.27537 3.42407
LeftShoulder1  1.64549 -2.77811 -19.7177
LeftArm  -55.8466 37.8034 -67.682
LeftForeArm  118.185 -5.60867 10.9599
LeftHand  0.0230044 -7.79632 0.264854
RightShoulder  2.27587 4.19153 23.4257
RightArm  -9.99389 -24.8831 57.3225
RightForeArm  30.8358 33.3268 5.61738
RightHand  0.0717898 3.41899 0.702517
LeftUpLeg  3.34124 12.1899 16.1303
LeftLeg  22.2972 4.49553 2.35117
LeftFoot  -14.5084 -0.191272 -10.0358
LeftToes  4.78349e-008 1.46828e-008 1.33736e-009
311
root  -4.72231 39.7739 -2.53255 130.407 -80.5754 -136.067
RightUpLeg  7.8209 0.0880077 10.3211
RightLeg  8.16958 -22.6537 -0.265716
RightFoot  -9.92516 -0.0527599 -1.16522
RightToes  -3.1126e-008 1.75238e-005 3.56266e-009
Spine  -19.5036 0.632705 -3.93058
Spine1  27.2601 0.712934 4.70126
HEad  -1.05952 1.66986 4.40866
LeftShoulder1  1.64032 -2.79655 -19.5419
LeftArm  -56.7041 40.3564 -67.7574
LeftForeArm  126.471 -5.68188 11.4665
LeftHand  0.882206 -11.5482 -5.62751
RightShoulder  2.22876 4.06423 23.2948
RightArm  -10.0955 -24.589 57.447
RightForeArm  29.1581 33.4271 5.73773
RightHand  0.0823972 2.62142 0.981887
LeftUpLeg  2.9203 11.2109 15.9168
LeftLeg  22.7111 5.40254 2.80464
LeftFoot  -14.4711 -0.19156 -10.1576
LeftToes  4.78349e-008 1.46828e-008 1.33736e-009
312
root  -4.64583 39.7512 -2.53385 126.277 -81.261 -132.045
RightUpLeg  7.60414 -0.111351 10.2457
RightLeg  8.61955 -23.3545 -0.449501
RightFoot  -10.0757 -0.057515 -0.969012
RightToes  -3.1126e-008 1.75238e-005 3.56266e-009
Spine  -19.183 1.30824 -3.99141
Spine1  28.0706 1.46148 4.78187
HEad  -1.57107 -0.901385 6.04226
LeftShoulder1  1.52848 -2.4764 -19.0285
LeftArm  -57.6433 38.4863 -66.074
LeftForeArm  130.517 -4.81579 13.5714
LeftHand  1.99518 -13.0091 -12.0907
RightShoulder  2.37724 4.50298 23.5475
RightArm  -11.223 -24.9824 57.3151
RightForeArm  26.9478 34.4953 6.13985
RightHand  0.121751 3.32628 1.38902
LeftUpLeg  2.34091 9.70185 15.4282
LeftLeg  23.209 6.04413 3.16083
LeftFoot  -14.3737 -0.181997 -10.1035
LeftToes  4.78349e-008 1.46828e-008 1.33736e-009
313
root  -4.55657 39.7271 -2.54736 115.982 -82.4688 -122.265
RightUpLeg  7.89188 -0.774135 9.90825
RightLeg  8.88797 -24.4924 -0.300852
RightFoot  -10.2625 -0.0618207 -0.809461
RightToes  -3.1126e-008 1.75238e-005 3.56266e-009
Spine  -18.0049 2.05789 -3.89753
Spine1  28.3195 2.3421 4.63055
HEad  -1.97163 -4.54736 7.86932
LeftShoulder1  1.40708 -2.12015 -18.4448
LeftArm  -57.0378 33.3434 -62.9521
LeftForeArm  132.005 -4.86667 15.3439
LeftHand  2.51868 -12.4453 -15.7707
RightShoulder  2.57668 5.09812 23.8188
RightArm  -11.517 -26.3313 56.5851
RightForeArm  23.5343 37.2392 7.08662
RightHand  0.158968 3.16676 1.92442
LeftUpLeg  1.90625 8.26788 15.0395
LeftLeg  23.738 5.91585 3.16779
LeftFoot  -14.2735 -0.164686 -9.74403
LeftToes  4.78349e-008 1.46828e-008 1.33736e-009
314
root  -4.42652 39.7377 -2.56187 98.2991 -83.8334 -105.272
RightUpLeg  8.42693 -1.9235 8.9423
RightLeg  8.9358 -25.551 0.155954
RightFoot  -10.367 -0.0663002 -0.464114
RightToes  -3.1126e-008 1.75238e-005 3.56266e-009
Spine  -16.3467 2.69201 -3.81596
Spine1  28.1763 3.33553 3.93368
HEad  -1.56265 -8.4149 9.56603
LeftShoulder1  1.331 -1.9407 -17.8287
LeftArm  -53.1401 25.5006 -59.224
LeftForeArm  131.915 -4.32099 15.1419
LeftHand  2.2261 -11.1158 -15.1145
RightShoulder  2.77879 5.64074 24.2772
RightArm  -9.62322 -27.2408 54.9542
RightForeArm  19.6547 40.5442 8.31084
RightHand  0.127148 3.43187 1.42734
LeftUpLeg  1.59034 7.97919 14.65
LeftLeg  24.004 4.34616 2.43952
LeftFoot  -13.89 -0.123054 -9.25094
LeftToes  4.78349e-008 1.46828e-008 1.33736e-009
315
root  -4.27516 39.757 -2.56056 69.9585 -84.3778 -77.814
RightUpLeg  9.07294 -2.84726 8.16902
RightLeg  9.11843 -27.3012 0.19548
RightFoot  -10.25 -0.0708195 0.142581
RightToes  -3.1126e-008 1.75238e-005 3.56266e-009
Spine  -14.0654 2.94443 -3.93955
Spine1  27.4992 3.8875 3.37238
HEad  -0.742405 -12.7121 10.756
LeftShoulder1  1.3034 -1.79514 -17.9876
LeftArm  -47.1314 16.5748 -55.1049
LeftForeArm  123.973 -2.81321 12.5268
LeftHand  1.30888 -9.5899 -9.53245
RightShoulder  2.91678 6.04339 24.4435
RightArm  -8.30692 -27.1266 53.378
RightForeArm  16.9368 43.7332 9.56972
RightHand  0.108459 3.44705 1.17741
LeftUpLeg  1.39549 8.20611 14.4911
LeftLeg  24.2664 1.89858 1.26615
LeftFoot  -13.6161 -0.0950683 -8.88393
LeftToes  4.78349e-008 1.46828e-008 1.33736e-009
316
root  -4.1511 39.7863 -2.50977 45.4594 -83.5133 -54.0116
RightUpLeg  9.71135 -3.46441 7.56876
RightLeg  8.98611 -29.0982 0.267005
RightFoot  -10.0062 -0.0776248 0.83394
RightToes  -3.1126e-008 1.75238e-005 3.56266e-009
Spine  -12.0676 2.89194 -3.65142
Spine1  26.354 4.31251 1.98061
HEad  0.731628 -15.2415 11.8015
LeftShoulder1  1.30745 -1.78866 -18.1007
LeftArm  -41.6782 8.99084 -52.222
LeftForeArm  107.685 -2.69028 8.24452
LeftHand  0.198528 -6.04199 -1.73456
RightShoulder  3.02666 6.34316 24.6399
RightArm  -7.54488 -26.7429 51.7702
RightForeArm  14.5651 47.35 11.1261
RightHand  0.153962 3.56046 1.74767
LeftUpLeg  1.51006 8.81452 14.3356
LeftLeg  23.7951 0.425957 0.530498
LeftFoot  -13.8261 -0.107503 -8.72319
LeftToes  4.78349e-008 1.46828e-008 1.33736e-009
317
root  -4.04643 39.8391 -2.39762 29.6977 -81.6365 -38.693
RightUpLeg  10.3166 -3.8942 7.13592
RightLeg  8.4467 -31.0656 0.637814
RightFoot  -9.57304 -0.0854068 1.3348
RightToes  -3.1126e-008 1.75238e-005 3.56266e-009
Spine  -11.1511 2.23739 -3.51083
Spine1  26.3366 4.04057 0.512741
HEad  1.16485 -17.1228 13.4105
LeftShoulder1  1.38704 -2.02782 -18.5052
LeftArm  -33.8893 4.0415 -50.1148
LeftForeArm  86.2336 -7.70458 0.746924
LeftHand  -0.0257378 -4.41225 0.504448
RightShoulder  2.91952 6.0853 24.3303
RightArm  -6.50582 -24.6943 50.5304
RightForeArm  11.146 50.73 12.9137
RightHand  0.183553 3.24704 2.22738
LeftUpLeg  1.76682 9.75009 14.2194
LeftLeg  22.4907 0.436175 0.527753
LeftFoot  -14.322 -0.147404 -8.88836
LeftToes  4.78349e-008 1.46828e-008 1.33736e-009
318
root  -3.91671 39.931 -2.22534 19.9524 -80.0759 -29.435
RightUpLeg  10.6912 -4.38667 6.20481
RightLeg  8.61871 -32.3731 0.614994
RightFoot  -9.19043 -0.0977213 1.88006
RightToes  -3.1126e-008 1.75238e-005 3.56266e-009
Spine  -10.2254 1.56124 -4.42799
Spine1  26.2587 3.45781 -0.186068
HEad  0.737496 -17.6712 14.5573
LeftShoulder1  1.47336 -2.30695 -18.808
LeftArm  -20.7025 0.251226 -49.2542
LeftForeArm  63.46 -18.1908 -4.48797
LeftHand  0.472121 -4.49825 -5.28746
RightShoulder  2.71258 5.63326 23.535
RightArm  -3.27407 -21.5533 48.2725
RightForeArm  7.54601 54.2699 15.1461
RightHand  0.224598 2.85438 2.89449
LeftUpLeg  2.40393 10.535 13.4643
LeftLeg  20.7833 -0.0655379 0.296496
LeftFoot  -13.4803 -0.0544927 -7.32546
LeftToes  4.78349e-008 1.46828e-008 1.33736e-009
319
root  -3.78567 40.0203 -2.01139 14.3208 -79.141 -24.5942
RightUpLeg  10.8533 -4.73654 5.31428
RightLeg  10.0729 -32.9023 -0.373122
RightFoot  -8.73744 -0.12464 2.88176
RightToes  -3.1126e-008 1.75238e-005 3.56266e-009
Spine  -9.2259 1.3224 -5.23851
Spine1  26.3015 3.13979 -0.283894
HEad  0.139174 -18.3436 15.515
LeftShoulder1  1.56865 -2.61594 -19.1099
LeftArm  -3.78434 -4.95063 -49.5019
LeftForeArm  38.4034 -28.3812 -3.76494
LeftHand  1.08704 -4.83128 -11.9796
RightShoulder  2.62672 5.60225 22.6476
RightArm  -0.233839 -18.4986 45.1115
RightForeArm  5.36813 58.5848 18.3407
RightHand  0.474692 3.13789 6.36734
LeftUpLeg  3.31038 8.86386 12.3825
LeftLeg  19.665 0.167014 0.392066
LeftFoot  -12.4257 0.00159717 -7.60166
LeftToes  4.78349e-008 1.46828e-008 1.33736e-009
320
root  -3.64495 40.1028 -1.72751 11.9161 -79.1071 -22.6939
RightUpLeg  9.98404 -5.66019 4.19261
RightLeg  13.0895 -31.6651 -2.22597
RightFoot  -8.10571 -0.179441 4.36798
RightToes  -3.1126e-008 1.75238e-005 3.56266e-009
Spine  -8.81657 1.52987 -5.44051
Spine1  26.5509 3.30684 -0.246692
HEad  0.25372 -18.9076 15.504
LeftShoulder1  1.64563 -2.91055 -19.143
LeftArm  0.948702 -10.8154 -50.5201
LeftForeArm  21.9819 -34.8985 -6.5301
LeftHand  1.65069 -5.60569 -16.9423
RightShoulder  2.71764 6.06861 22.1542
RightArm  1.1438 -15.2632 41.6679
RightForeArm  2.35233 62.8866 22.6301
RightHand  0.819195 2.1045 12.4782
LeftUpLeg  4.17432 8.10322 11.2864
LeftLeg  18.5832 0.967379 0.68778
LeftFoot  -11.4557 0.0615508 -6.65549
LeftToes  4.78349e-008 1.46828e-008 1.33736e-009
321
root  -3.51465 40.2188 -1.38261 11.6186 -79.0638 -22.678
RightUpLeg  9.04447 -9.53453 2.56528
RightLeg  15.4814 -27.1191 -3.35834
RightFoot  -6.80452 -0.279218 5.87844
RightToes  -3.1126e-008 1.75238e-005 3.56266e-009
Spine  -8.95887 1.62417 -4.966
Spine1  26.8822 3.41985 -0.74791
HEad  0.673482 -20.2165 15.4737
LeftShoulder1  1.8928 -3.9667 -18.7996
LeftArm  1.06026 -15.3976 -53.3734
LeftForeArm  8.75631 -39.9325 -8.81685
LeftHand  1.82332 -6.34207 -17.5441
RightShoulder  2.78482 6.41761 21.8109
RightArm  1.44894 -11.1187 38.9431
RightForeArm  -2.72949 65.7022 26.7889
RightHand  1.07244 1.60677 17.4795
LeftUpLeg  4.923 6.57735 10.1596
LeftLeg  17.2714 2.72575 1.27407
LeftFoot  -10.5183 0.10339 -5.57705
LeftToes  4.78349e-008 1.46828e-008 1.33736e-009
322
root  -3.39127 40.3414 -1.00803 11.1151 -79.905 -22.3763
RightUpLeg  7.81373 -16.7018 0.141574
RightLeg  18.0712 -18.3929 -4.77514
RightFoot  -5.45074 -0.422575 7.45673
RightToes  -3.1126e-008 1.75238e-005 3.56266e-009
Spine  -9.0779 1.7555 -5.00348
Spine1  26.7341 3.44414 -1.18563
HEad  2.63217 -19.6406 14.5714
LeftShoulder1  2.09323 -4.78756 -18.7009
LeftArm  -1.1085 -19.2772 -57.4447
LeftForeArm  -3.26889 -43.0449 -10.6531
LeftHand  1.65529 -6.51335 -15.6854
RightShoulder  2.87453 6.86685 21.4332
RightArm  -0.922463 -6.36106 37.9667
RightForeArm  -9.77719 66.7654 29.2261
RightHand  1.15935 1.2365 20.0282
LeftUpLeg  6.14151 5.78195 8.75
LeftLeg  15.392 4.79055 1.82292
LeftFoot  -9.5312 0.136604 -5.0321
LeftToes  4.78349e-008 1.46828e-008 1.33736e-009
323
root  -3.27228 40.4054 -0.625544 10.6214 -81.2966 -22.28
RightUpLeg  6.58818 -20.1244 -1.70699
RightLeg  20.7416 -13.0845 -5.73178
RightFoot  -4.13669 -0.609421 9.22933
RightToes  -3.1126e-008 1.75238e-005 3.56266e-009
Spine  -8.5435 1.85375 -5.17929
Spine1  25.526 3.37304 -1.55279
HEad  5.73817 -18.0883 13.0302
LeftShoulder1  2.30749 -5.50231 -19.1093
LeftArm  -4.19311 -23.1007 -61.5181
LeftForeArm  -12.3227 -43.8821 -11.5368
LeftHand  1.28209 -6.22261 -12.4239
RightShoulder  2.98335 7.35488 21.1699
RightArm  -5.65466 -0.728518 39.1901
RightForeArm  -19.049 64.8142 27.1798
RightHand  1.32391 1.52841 21.8748
LeftUpLeg  7.59016 6.28453 7.79216
LeftLeg  13.8401 5.82134 1.71024
LeftFoot  -8.95735 0.147934 -4.51659
LeftToes  4.78349e-008 1.46828e-008 1.33736e-009
324
root  -3.147 40.3678 -0.258194 6.15164 -83.2434 -17.847
RightUpLeg  4.19487 -19.005 -3.52831
RightLeg  24.8133 -11.7729 -6.09223
RightFoot  -3.47056 -0.750132 10.5371
RightToes  -3.1126e-008 1.75238e-005 3.56266e-009
Spine  -8.53521 1.89293 -6.01171
Spine1  24.5855 3.39382 -2.00237
HEad  9.02071 -15.6308 11.5095
LeftShoulder1  2.44867 -5.8895 -19.5961
LeftArm  -8.61792 -26.9951 -65.716
LeftForeArm  -16.8199 -43.7428 -11.7408
LeftHand  0.73473 -4.71243 -8.01977
RightShoulder  3.03818 7.60194 21.0404
RightArm  -11.3677 5.55349 42.3349
RightForeArm  -27.8846 61.5861 23.8396
RightHand  1.13182 2.06454 17.2774
LeftUpLeg  8.31541 7.1062 6.50044
LeftLeg  13.2221 7.05813 1.0424
LeftFoot  -8.9388 0.143855 -4.29877
LeftToes  4.78349e-008 1.46828e-008 1.33736e-009
